<svg xmlns="http://www.w3.org/2000/svg" version="1.1" xmlns:xlink="http://www.w3.org/1999/xlink" xmlns:svgjs="http://svgjs.com/svgjs" width="1440" height="700" preserveAspectRatio="none" viewBox="0 0 1440 700"><g mask="url(&quot;#SvgjsMask2245&quot;)" fill="none"><path d="M 0,145 C 57.6,165 172.8,249.8 288,245 C 403.2,240.2 460.8,134.8 576,121 C 691.2,107.2 748.8,186.8 864,176 C 979.2,165.2 1036.8,36 1152,67 C 1267.2,98 1382.4,278.2 1440,331L1440 700L0 700z" fill="rgba(255, 254, 254, 1)"></path><path d="M 0,441 C 36,489.2 108,667.6 180,682 C 252,696.4 288,530.2 360,513 C 432,495.8 468,609 540,596 C 612,583 648,446.6 720,448 C 792,449.4 828,621.4 900,603 C 972,584.6 1008,370.8 1080,356 C 1152,341.2 1188,499.6 1260,529 C 1332,558.4 1404,508.2 1440,503L1440 700L0 700z" fill="rgba(250, 194, 97, 1)"></path></g><defs><mask id="SvgjsMask2245"><rect width="1440" height="700" fill="#ffffff"></rect></mask></defs></svg>